<svg xmlns="http://www.w3.org/2000/svg" viewBox="0 0 97 97">
  <g transform="translate(-49.813645,-124.89012)">
    <path style="fill:#aedbfc" d="M 63.015292,207.33247 49.813646,194.13083 v -21.55767 -21.55767 l 12.166667,-12.2983 c 6.691666,-6.76406 12.916666,-12.68863 13.833333,-13.16571 1.307237,-0.68035 6.195488,-0.79456 22.666667,-0.52956 l 20.999997,0.33787 13.20193,13.08716 13.20192,13.08717 -0.3751,6.33333 c -0.20631,3.48334 -0.59717,13.16466 -0.86859,21.51405 l -0.49349,15.18072 -12.69201,12.54267 -12.692,12.54267 -7.64133,0.44025 c -4.20273,0.24214 -13.775587,0.44161 -21.273015,0.44328 l -13.631687,0.003 z m 52.621258,-15.62081 7.51043,-7.48912 v -10.66711 -10.66711 l -7.48913,-7.51044 -7.48912,-7.51043 H 97.834952 87.501175 l -7.510431,7.48913 -7.510431,7.48912 v 10.04503 10.04503 l 8.226116,8.13251 8.226116,8.13252 h 9.596786 9.596789 z"/>
    <path style="fill:#1497f8" d="m 63.758813,206.70079 -13.255179,-13.16667 -0.01526,-20.64455 -0.01526,-20.64454 13.188787,-13.18879 13.188787,-13.18879 h 20.975228 20.975234 l 12.83958,12.82692 12.83959,12.82693 v 5.62141 5.62142 l -9.47024,9.55166 c -5.20864,5.25341 -9.70864,9.55166 -10,9.55166 -0.29137,0 -0.52976,-4.41176 -0.52976,-9.80392 v -9.80392 l -8.19608,-8.19608 -8.19607,-8.19608 H 97.843684 87.599212 l -8.226116,8.13251 -8.226117,8.13252 v 10.0713 c 0,9.41255 0.09811,10.20095 1.5,12.05351 0.825,1.09021 8.65191,9.0235 17.393132,17.62952 8.741223,8.60602 16.176779,16.17231 16.523459,16.81398 0.59177,1.09531 -0.29257,1.16666 -14.459629,1.16666 h -15.08995 z"/>
    <path style="fill:#0166cb" d="m 61.039912,202.69852 -9.711598,-9.83107 -0.424001,-8.27133 c -0.2332,-4.54924 -0.424,-13.6909 -0.424,-20.31482 v -12.04348 l 13.29025,-13.29025 13.29025,-13.29025 8.543084,0.4357 c 4.698695,0.23963 14.064533,0.43691 20.812973,0.4384 l 12.26989,0.003 2.56345,2.69474 2.56344,2.69474 v 13.97192 c 0,7.68456 -0.23036,13.97193 -0.51192,13.97193 -0.28154,0 -3.65118,-3.15 -7.48808,-7 l -6.97618,-7 H 98.210979 87.584489 l -8.385422,8.312 -8.385421,8.31199 0.124787,10.52134 c 0.06863,5.78674 0.316176,16.7838 0.550096,24.43791 0.234756,7.68145 0.164928,14.17695 -0.155855,14.49774 -0.330442,0.33044 -4.770887,-3.6601 -10.292762,-9.24991 z"/>
    <path style="fill:#002e99" d="m 51.813646,166.3444 v -14.85638 l 12.539913,-12.47695 12.539913,-12.47695 h 5.573343 5.573344 l 9.254907,9.16667 9.254904,9.16666 -9.721822,0.33334 -9.721825,0.33333 -8.479672,8.83508 c -4.66382,4.85929 -12.367282,12.88429 -17.118806,17.83333 -4.751524,4.94904 -8.876524,8.99826 -9.166667,8.99826 -0.290143,0 -0.527532,-6.68537 -0.527532,-14.85639 z"/>
  </g>
</svg>
